<svg xmlns="http://www.w3.org/2000/svg" xmlns:xlink="http://www.w3.org/1999/xlink" width="500"
    zoomAndPan="magnify" viewBox="0 0 375 374.999991" height="500"
    preserveAspectRatio="xMidYMid meet" version="1.0">
    <defs>
        <g />
        <clipPath id="9dd334297a">
            <path
                d="M 47.191406 115.765625 L 327.691406 115.765625 L 327.691406 259.015625 L 47.191406 259.015625 Z M 47.191406 115.765625 "
                clip-rule="nonzero" />
        </clipPath>
    </defs>
    <path fill="#ff3131"
        d="M 194.15625 136.230469 C 190.648438 136.230469 187.808594 139.070312 187.808594 142.570312 C 187.808594 146.070312 190.648438 148.90625 194.15625 148.90625 C 197.65625 148.90625 200.5 146.070312 200.5 142.570312 C 200.5 139.070312 197.65625 136.230469 194.15625 136.230469 "
        fill-opacity="1" fill-rule="nonzero" />
    <path fill="#ff3131"
        d="M 210.832031 172.632812 C 210.832031 176.136719 213.675781 178.972656 217.175781 178.972656 C 220.683594 178.972656 223.523438 176.136719 223.523438 172.632812 C 223.523438 169.132812 220.683594 166.296875 217.175781 166.296875 C 213.675781 166.296875 210.832031 169.132812 210.832031 172.632812 "
        fill-opacity="1" fill-rule="nonzero" />
    <g clip-path="url(#9dd334297a)">
        <path fill="#ff3131"
            d="M 204.875 149.355469 C 202.5625 152.988281 198.453125 155.367188 193.796875 155.242188 C 187.082031 155.058594 181.625 149.578125 181.464844 142.878906 C 181.296875 135.734375 187.042969 129.890625 194.15625 129.890625 C 198.707031 129.890625 202.695312 132.285156 204.933594 135.886719 C 206.125 137.800781 208.230469 138.949219 210.484375 138.949219 L 258.902344 138.949219 C 260.988281 138.949219 262.683594 137.253906 262.683594 135.164062 L 262.683594 134.984375 C 262.683594 132.894531 260.988281 131.203125 258.902344 131.203125 L 230.699219 131.203125 C 228.71875 131.203125 227.035156 129.664062 226.964844 127.691406 C 226.890625 125.621094 228.554688 123.917969 230.609375 123.917969 L 299.511719 123.917969 C 301.601562 123.917969 303.296875 122.222656 303.296875 120.132812 L 303.296875 119.546875 C 303.296875 117.457031 301.601562 115.765625 299.511719 115.765625 L 211.234375 115.765625 C 181.457031 115.765625 155.839844 133.316406 144.472656 158.480469 C 142.585938 158.273438 140.667969 158.164062 138.726562 158.164062 C 121.28125 158.164062 105.878906 166.757812 96.640625 179.878906 C 93.828125 179.273438 90.910156 178.953125 87.910156 178.953125 C 65.480469 178.953125 47.296875 196.855469 47.296875 218.933594 C 47.296875 241.019531 65.480469 258.917969 87.910156 258.917969 L 323.796875 259.019531 C 325.890625 259.019531 327.585938 257.328125 327.585938 255.238281 C 327.585938 253.148438 325.890625 251.453125 323.796875 251.453125 L 253.179688 251.453125 C 251.199219 251.453125 249.519531 249.917969 249.445312 247.945312 C 249.371094 245.871094 251.035156 244.167969 253.089844 244.167969 L 277.664062 244.167969 C 279.804688 244.167969 281.542969 242.433594 281.542969 240.292969 C 281.542969 238.15625 279.804688 236.421875 277.664062 236.421875 L 204.839844 236.421875 C 202.5625 236.421875 200.472656 237.621094 199.253906 239.542969 C 196.941406 243.179688 192.832031 245.558594 188.175781 245.433594 C 181.464844 245.246094 176.003906 239.769531 175.84375 233.070312 C 175.675781 225.925781 181.421875 220.082031 188.535156 220.082031 C 193.085938 220.082031 197.078125 222.476562 199.316406 226.078125 C 200.507812 227.988281 202.609375 229.140625 204.867188 229.140625 L 323.707031 229.140625 C 325.847656 229.140625 327.585938 227.40625 327.585938 225.265625 C 327.585938 223.125 325.847656 221.390625 323.707031 221.390625 L 247.558594 221.390625 C 245.578125 221.390625 243.898438 219.855469 243.824219 217.882812 C 243.753906 215.808594 245.414062 214.105469 247.472656 214.105469 L 292.347656 214.105469 C 294.488281 214.105469 296.226562 212.371094 296.226562 210.234375 C 296.226562 208.09375 294.488281 206.359375 292.347656 206.359375 L 221.703125 206.359375 C 219.421875 206.359375 217.335938 207.558594 216.113281 209.480469 C 213.804688 213.117188 209.691406 215.5 205.039062 215.371094 C 198.324219 215.183594 192.863281 209.710938 192.707031 203.003906 C 192.539062 195.863281 198.285156 190.019531 205.394531 190.019531 C 209.945312 190.019531 213.9375 192.417969 216.179688 196.011719 C 217.367188 197.925781 219.472656 199.074219 221.726562 199.074219 L 309.484375 199.074219 C 311.574219 199.074219 313.269531 197.382812 313.269531 195.292969 L 313.269531 195.109375 C 313.269531 193.019531 311.574219 191.328125 309.484375 191.328125 L 241.9375 191.328125 C 239.960938 191.328125 238.273438 189.789062 238.207031 187.816406 C 238.132812 185.746094 239.792969 184.042969 241.851562 184.042969 L 264.609375 184.042969 C 266.753906 184.042969 268.488281 182.308594 268.488281 180.167969 C 268.488281 178.027344 266.753906 176.296875 264.609375 176.296875 L 233.125 176.296875 C 231.070312 176.296875 229.140625 177.347656 228.089844 179.109375 C 225.820312 182.917969 221.609375 185.4375 216.820312 185.304688 C 210.109375 185.121094 204.648438 179.644531 204.492188 172.9375 C 204.324219 165.796875 210.070312 159.957031 217.175781 159.957031 C 221.792969 159.957031 225.832031 162.414062 228.050781 166.09375 C 229.132812 167.886719 231.050781 169.011719 233.144531 169.011719 L 323.796875 169.011719 C 325.890625 169.011719 327.585938 167.316406 327.585938 165.230469 L 327.585938 165.046875 C 327.585938 162.957031 325.890625 161.261719 323.796875 161.261719 L 236.316406 161.261719 C 234.339844 161.261719 232.65625 159.730469 232.585938 157.753906 C 232.511719 155.679688 234.171875 153.976562 236.230469 153.976562 L 277.753906 153.976562 C 279.847656 153.976562 281.542969 152.285156 281.542969 150.195312 L 281.542969 150.015625 C 281.542969 147.925781 279.847656 146.230469 277.753906 146.230469 L 210.460938 146.230469 C 208.179688 146.230469 206.09375 147.433594 204.875 149.355469 "
            fill-opacity="1" fill-rule="nonzero" />
    </g>
    <path fill="#ff3131"
        d="M 205.394531 196.355469 C 201.890625 196.355469 199.050781 199.195312 199.050781 202.695312 C 199.050781 206.195312 201.890625 209.035156 205.394531 209.035156 C 208.898438 209.035156 211.742188 206.195312 211.742188 202.695312 C 211.742188 199.195312 208.898438 196.355469 205.394531 196.355469 "
        fill-opacity="1" fill-rule="nonzero" />
    <path fill="#ff3131"
        d="M 182.1875 232.757812 C 182.1875 236.261719 185.027344 239.097656 188.535156 239.097656 C 192.035156 239.097656 194.878906 236.261719 194.878906 232.757812 C 194.878906 229.257812 192.035156 226.421875 188.535156 226.421875 C 185.027344 226.421875 182.1875 229.257812 182.1875 232.757812 "
        fill-opacity="1" fill-rule="nonzero" />
    <g fill="#ffffff" fill-opacity="1">
        <g transform="translate(73.958789, 231.50252)">
            <g>
                <path
                    d="M 21.511719 -13.199219 C 20.742188 -14.46875 19.972656 -15.507812 19.203125 -16.238281 C 19.433594 -16.546875 19.664062 -16.855469 19.933594 -17.238281 C 20.242188 -17.738281 20.585938 -18.316406 20.972656 -18.972656 L 27.320312 -30.128906 C 27.4375 -30.398438 27.476562 -30.707031 27.4375 -31.054688 C 27.320312 -31.476562 27.015625 -31.707031 26.550781 -31.707031 L 22.742188 -31.707031 C 22.320312 -31.707031 22.050781 -31.632812 21.894531 -31.476562 C 21.742188 -31.363281 21.589844 -31.207031 21.472656 -30.9375 L 15.660156 -20.664062 C 15.429688 -20.28125 15.199219 -19.972656 15.007812 -19.703125 C 14.816406 -19.472656 14.585938 -19.277344 14.390625 -19.164062 C 14.160156 -19.046875 13.890625 -18.972656 13.582031 -18.933594 C 13.277344 -18.894531 12.851562 -18.855469 12.351562 -18.855469 L 8.8125 -18.855469 L 8.8125 -30.363281 C 8.8125 -31.59375 8.042969 -31.707031 7.734375 -31.707031 L 4.195312 -31.707031 C 3.886719 -31.707031 3.078125 -31.59375 3.078125 -30.363281 L 3.078125 -1.308594 C 3.078125 -0.117188 3.886719 0.0390625 4.195312 0.0390625 L 7.734375 0.0390625 C 8.042969 0.0390625 8.8125 -0.117188 8.8125 -1.308594 L 8.8125 -13.160156 L 12.699219 -13.160156 C 13.621094 -13.160156 14.316406 -13.046875 14.777344 -12.777344 C 15.199219 -12.542969 15.625 -12.042969 16.046875 -11.273438 L 22.050781 -0.730469 C 22.164062 -0.5 22.320312 -0.308594 22.472656 -0.191406 C 22.625 -0.0390625 22.894531 0.0390625 23.28125 0.0390625 L 27.4375 0.0390625 C 27.976562 0.0390625 28.285156 -0.269531 28.320312 -0.769531 C 28.359375 -1.15625 28.320312 -1.460938 28.167969 -1.65625 Z M 21.511719 -13.199219 " />
            </g>
        </g>
    </g>
    <g fill="#ffffff" fill-opacity="1">
        <g transform="translate(106.165818, 231.50252)">
            <g>
                <path
                    d="M 21.933594 -31.707031 L 4.15625 -31.707031 C 3.847656 -31.707031 3.078125 -31.59375 3.078125 -30.363281 L 3.078125 -27.320312 C 3.078125 -26.128906 3.847656 -26.011719 4.15625 -26.011719 L 20.933594 -26.011719 C 21.894531 -26.011719 22.589844 -25.742188 22.972656 -25.167969 C 23.398438 -24.589844 23.589844 -23.664062 23.589844 -22.394531 C 23.589844 -21.125 23.398438 -20.203125 22.972656 -19.625 C 22.589844 -19.046875 21.894531 -18.777344 20.933594 -18.777344 L 4.15625 -18.777344 C 3.847656 -18.777344 3.078125 -18.664062 3.078125 -17.46875 L 3.078125 -1.308594 C 3.078125 -0.117188 3.847656 0.0390625 4.15625 0.0390625 L 7.695312 0.0390625 C 8.003906 0.0390625 8.773438 -0.117188 8.773438 -1.308594 L 8.773438 -13.082031 L 21.933594 -13.121094 C 24.550781 -13.121094 26.4375 -13.929688 27.589844 -15.546875 C 28.746094 -17.164062 29.285156 -19.472656 29.285156 -22.511719 L 29.285156 -22.28125 C 29.285156 -25.359375 28.746094 -27.667969 27.589844 -29.246094 C 26.4375 -30.898438 24.550781 -31.707031 21.933594 -31.707031 Z M 21.933594 -31.707031 " />
            </g>
        </g>
    </g>
    <g fill="#ffffff" fill-opacity="1">
        <g transform="translate(139.296347, 231.50252)">
            <g>
                <path
                    d="M 33.746094 -32.132812 L 29.515625 -32.132812 C 29.015625 -32.132812 28.628906 -31.863281 28.398438 -31.324219 L 18.972656 -7.503906 C 18.972656 -7.425781 18.933594 -7.425781 18.933594 -7.425781 L 18.777344 -7.386719 C 18.777344 -7.386719 18.777344 -7.425781 18.742188 -7.503906 L 9.160156 -31.324219 C 9.003906 -31.863281 8.621094 -32.132812 8.082031 -32.132812 L 3.925781 -32.132812 C 3.347656 -32.132812 3.15625 -31.746094 3.117188 -31.59375 C 3.039062 -31.324219 3.078125 -31.015625 3.230469 -30.632812 L 14.007812 -4.003906 C 14.121094 -3.769531 14.199219 -3.578125 14.277344 -3.425781 C 14.855469 -1.386719 16.738281 0.0390625 18.855469 0.0390625 C 19.816406 0.0390625 20.742188 -0.269531 21.511719 -0.808594 C 21.742188 -0.921875 21.933594 -1.039062 22.089844 -1.191406 C 22.664062 -1.691406 23.203125 -2.617188 23.78125 -4.003906 L 34.480469 -30.632812 C 34.632812 -31.015625 34.671875 -31.324219 34.59375 -31.59375 C 34.515625 -31.785156 34.324219 -32.132812 33.746094 -32.132812 Z M 33.746094 -32.132812 " />
            </g>
        </g>
    </g>
</svg>